<mxfile>
    <diagram id="awp_JAkLS6wvPmi2fAc1" name="Page-1">
        <mxGraphModel dx="573" dy="382" grid="1" gridSize="5" guides="1" tooltips="1" connect="1" arrows="1" fold="1" page="1" pageScale="1" pageWidth="2339" pageHeight="3300" background="#ffffff" math="0" shadow="0">
            <root>
                <mxCell id="0"/>
                <mxCell id="1" parent="0"/>
                <mxCell id="n9qfeYxf4jwycqsmzrw5-21" value="" style="rounded=1;whiteSpace=wrap;html=1;fillColor=none;dashed=1;strokeColor=#3333FF;" parent="1" vertex="1">
                    <mxGeometry x="880" y="470" width="520" height="225" as="geometry"/>
                </mxCell>
                <mxCell id="n9qfeYxf4jwycqsmzrw5-11" value="" style="rounded=1;whiteSpace=wrap;html=1;fillColor=none;dashed=1;strokeColor=#FF00FF;glass=0;shadow=0;sketch=0;" parent="1" vertex="1">
                    <mxGeometry x="880" y="780" width="520" height="220" as="geometry"/>
                </mxCell>
                <mxCell id="n9qfeYxf4jwycqsmzrw5-16" style="edgeStyle=orthogonalEdgeStyle;rounded=0;orthogonalLoop=1;jettySize=auto;html=1;entryX=0.5;entryY=0;entryDx=0;entryDy=0;fontSize=16;startArrow=classic;startFill=1;strokeWidth=2;strokeColor=#000000;" parent="1" source="n9qfeYxf4jwycqsmzrw5-1" target="n9qfeYxf4jwycqsmzrw5-9" edge="1">
                    <mxGeometry relative="1" as="geometry"/>
                </mxCell>
                <mxCell id="n9qfeYxf4jwycqsmzrw5-17" style="edgeStyle=orthogonalEdgeStyle;rounded=1;orthogonalLoop=1;jettySize=auto;html=1;entryX=0.5;entryY=0;entryDx=0;entryDy=0;fontSize=16;startArrow=classic;startFill=1;strokeWidth=2;strokeColor=#000000;" parent="1" source="n9qfeYxf4jwycqsmzrw5-1" target="n9qfeYxf4jwycqsmzrw5-6" edge="1">
                    <mxGeometry relative="1" as="geometry">
                        <Array as="points">
                            <mxPoint x="1310" y="860"/>
                        </Array>
                    </mxGeometry>
                </mxCell>
                <mxCell id="n9qfeYxf4jwycqsmzrw5-18" style="edgeStyle=orthogonalEdgeStyle;rounded=1;orthogonalLoop=1;jettySize=auto;html=1;entryX=0.5;entryY=0;entryDx=0;entryDy=0;fontSize=16;startArrow=classic;startFill=1;strokeWidth=2;strokeColor=#000000;" parent="1" source="n9qfeYxf4jwycqsmzrw5-1" target="n9qfeYxf4jwycqsmzrw5-8" edge="1">
                    <mxGeometry relative="1" as="geometry">
                        <Array as="points">
                            <mxPoint x="960" y="860"/>
                        </Array>
                    </mxGeometry>
                </mxCell>
                <mxCell id="n9qfeYxf4jwycqsmzrw5-1" value="RocketPy Core" style="rounded=1;whiteSpace=wrap;html=1;fillColor=#d5e8d4;strokeColor=#82b366;fontStyle=1;fontColor=#000000;" parent="1" vertex="1">
                    <mxGeometry x="1100" y="810" width="70" height="60" as="geometry"/>
                </mxCell>
                <mxCell id="n9qfeYxf4jwycqsmzrw5-27" style="edgeStyle=orthogonalEdgeStyle;rounded=0;orthogonalLoop=1;jettySize=auto;html=1;entryX=1;entryY=0.5;entryDx=0;entryDy=0;fontSize=8;startArrow=none;startFill=0;strokeColor=#FF8000;strokeWidth=2;" parent="1" source="n9qfeYxf4jwycqsmzrw5-2" target="n9qfeYxf4jwycqsmzrw5-26" edge="1">
                    <mxGeometry relative="1" as="geometry">
                        <Array as="points">
                            <mxPoint x="1200" y="540"/>
                            <mxPoint x="1200" y="540"/>
                        </Array>
                    </mxGeometry>
                </mxCell>
                <mxCell id="n9qfeYxf4jwycqsmzrw5-33" style="edgeStyle=orthogonalEdgeStyle;orthogonalLoop=1;jettySize=auto;html=1;fontSize=8;startArrow=classic;startFill=1;exitX=0.5;exitY=1;exitDx=0;exitDy=0;strokeWidth=2;rounded=1;strokeColor=#FF8000;" parent="1" source="n9qfeYxf4jwycqsmzrw5-2" edge="1">
                    <mxGeometry relative="1" as="geometry">
                        <mxPoint x="1150" y="810" as="targetPoint"/>
                        <Array as="points">
                            <mxPoint x="1265" y="750"/>
                            <mxPoint x="1150" y="750"/>
                        </Array>
                    </mxGeometry>
                </mxCell>
                <mxCell id="n9qfeYxf4jwycqsmzrw5-2" value="ICLR Valispace Deployment" style="rounded=1;whiteSpace=wrap;html=1;fillColor=#f8cecc;strokeColor=#b85450;fontColor=#000000;" parent="1" vertex="1">
                    <mxGeometry x="1220" y="525" width="90" height="60" as="geometry"/>
                </mxCell>
                <mxCell id="n9qfeYxf4jwycqsmzrw5-6" value="Autodesk Fusion 360" style="rounded=1;whiteSpace=wrap;html=1;fillColor=#f8cecc;strokeColor=#b85450;fontColor=#000000;" parent="1" vertex="1">
                    <mxGeometry x="1270" y="920" width="80" height="60" as="geometry"/>
                </mxCell>
                <mxCell id="n9qfeYxf4jwycqsmzrw5-31" style="edgeStyle=orthogonalEdgeStyle;rounded=0;orthogonalLoop=1;jettySize=auto;html=1;fontSize=8;startArrow=none;startFill=0;strokeColor=#FF8000;exitX=0.5;exitY=0;exitDx=0;exitDy=0;strokeWidth=2;" parent="1" source="n9qfeYxf4jwycqsmzrw5-7" target="n9qfeYxf4jwycqsmzrw5-2" edge="1">
                    <mxGeometry relative="1" as="geometry">
                        <Array as="points">
                            <mxPoint x="1007" y="570"/>
                        </Array>
                    </mxGeometry>
                </mxCell>
                <mxCell id="n9qfeYxf4jwycqsmzrw5-42" style="edgeStyle=orthogonalEdgeStyle;rounded=1;orthogonalLoop=1;jettySize=auto;html=1;entryX=0.25;entryY=0;entryDx=0;entryDy=0;fontSize=8;startArrow=classic;startFill=1;strokeColor=#FF8000;strokeWidth=2;" parent="1" source="n9qfeYxf4jwycqsmzrw5-7" target="n9qfeYxf4jwycqsmzrw5-1" edge="1">
                    <mxGeometry relative="1" as="geometry">
                        <Array as="points">
                            <mxPoint x="1008" y="750"/>
                            <mxPoint x="1118" y="750"/>
                        </Array>
                    </mxGeometry>
                </mxCell>
                <mxCell id="n9qfeYxf4jwycqsmzrw5-7" value="ICLR GitHub" style="rounded=1;whiteSpace=wrap;html=1;fillColor=#d5e8d4;strokeColor=#82b366;fontColor=#000000;" parent="1" vertex="1">
                    <mxGeometry x="970" y="525" width="75" height="60" as="geometry"/>
                </mxCell>
                <mxCell id="n9qfeYxf4jwycqsmzrw5-8" value="ASTOS - Dynamics Toolbox" style="rounded=1;whiteSpace=wrap;html=1;fillColor=#f8cecc;strokeColor=#b85450;fontColor=#000000;" parent="1" vertex="1">
                    <mxGeometry x="920" y="920" width="80" height="60" as="geometry"/>
                </mxCell>
                <mxCell id="n9qfeYxf4jwycqsmzrw5-9" value="OpenRocket&lt;br&gt;(Java)" style="rounded=1;whiteSpace=wrap;html=1;fillColor=#d5e8d4;strokeColor=#82b366;fontColor=#000000;" parent="1" vertex="1">
                    <mxGeometry x="1095" y="920" width="80" height="60" as="geometry"/>
                </mxCell>
                <mxCell id="n9qfeYxf4jwycqsmzrw5-12" value="On-prem" style="text;html=1;align=center;verticalAlign=middle;resizable=0;points=[];autosize=1;strokeColor=none;fontSize=16;fontColor=#000000;" parent="1" vertex="1">
                    <mxGeometry x="888" y="788" width="75" height="25" as="geometry"/>
                </mxCell>
                <mxCell id="n9qfeYxf4jwycqsmzrw5-22" value="Cloud" style="text;html=1;align=center;verticalAlign=middle;resizable=0;points=[];autosize=1;strokeColor=none;fontSize=16;fontColor=#000000;" parent="1" vertex="1">
                    <mxGeometry x="895" y="480" width="60" height="20" as="geometry"/>
                </mxCell>
                <mxCell id="n9qfeYxf4jwycqsmzrw5-28" style="edgeStyle=orthogonalEdgeStyle;rounded=0;orthogonalLoop=1;jettySize=auto;html=1;fontSize=8;startArrow=none;startFill=0;strokeColor=#FF8000;strokeWidth=2;" parent="1" source="n9qfeYxf4jwycqsmzrw5-26" edge="1">
                    <mxGeometry relative="1" as="geometry">
                        <mxPoint x="1045" y="540" as="targetPoint"/>
                        <Array as="points">
                            <mxPoint x="1045" y="540"/>
                        </Array>
                    </mxGeometry>
                </mxCell>
                <mxCell id="n9qfeYxf4jwycqsmzrw5-26" value="Pipedream&lt;br&gt;(For auth)" style="rounded=1;whiteSpace=wrap;html=1;fillColor=#f8cecc;strokeColor=#b85450;fontSize=8;fontColor=#000000;" parent="1" vertex="1">
                    <mxGeometry x="1110" y="520" width="50" height="40" as="geometry"/>
                </mxCell>
                <mxCell id="n9qfeYxf4jwycqsmzrw5-53" style="edgeStyle=orthogonalEdgeStyle;rounded=0;orthogonalLoop=1;jettySize=auto;html=1;exitX=0;exitY=0.5;exitDx=0;exitDy=0;entryX=1;entryY=0.25;entryDx=0;entryDy=0;fontSize=12;fontColor=#000000;startArrow=classic;startFill=1;strokeColor=#000000;strokeWidth=2;" parent="1" source="n9qfeYxf4jwycqsmzrw5-38" target="n9qfeYxf4jwycqsmzrw5-1" edge="1">
                    <mxGeometry relative="1" as="geometry"/>
                </mxCell>
                <mxCell id="n9qfeYxf4jwycqsmzrw5-38" value="RocketPy Webclient&lt;br&gt;(Flask)" style="rounded=1;whiteSpace=wrap;html=1;fillColor=#d5e8d4;strokeColor=#82b366;fontSize=8;fontColor=#000000;" parent="1" vertex="1">
                    <mxGeometry x="1245" y="805" width="50" height="40" as="geometry"/>
                </mxCell>
                <mxCell id="n9qfeYxf4jwycqsmzrw5-43" value="(HTTPs)" style="text;html=1;strokeColor=none;fillColor=none;align=center;verticalAlign=middle;whiteSpace=wrap;rounded=0;dashed=1;fontSize=8;" parent="1" vertex="1">
                    <mxGeometry x="1190" y="805" width="40" height="20" as="geometry"/>
                </mxCell>
                <mxCell id="n9qfeYxf4jwycqsmzrw5-45" value="Open Source" style="rounded=1;whiteSpace=wrap;html=1;fillColor=#d5e8d4;strokeColor=#82b366;fontColor=#000000;" parent="1" vertex="1">
                    <mxGeometry x="1055" y="1055" width="60" height="45" as="geometry"/>
                </mxCell>
                <mxCell id="n9qfeYxf4jwycqsmzrw5-47" value="REST API Integrations" style="text;html=1;strokeColor=none;fillColor=none;align=center;verticalAlign=middle;whiteSpace=wrap;rounded=0;dashed=1;fontSize=12;fontColor=#FF8000;" parent="1" vertex="1">
                    <mxGeometry x="1170" y="1059.8" width="40" height="20" as="geometry"/>
                </mxCell>
                <mxCell id="n9qfeYxf4jwycqsmzrw5-48" value="Native&lt;br&gt;Integrations" style="text;html=1;strokeColor=none;fillColor=none;align=center;verticalAlign=middle;whiteSpace=wrap;rounded=0;dashed=1;fontSize=12;fontColor=#000000;" parent="1" vertex="1">
                    <mxGeometry x="1265" y="1059.8" width="40" height="20" as="geometry"/>
                </mxCell>
                <mxCell id="n9qfeYxf4jwycqsmzrw5-49" value="Proprietary&lt;br&gt;Software" style="rounded=1;whiteSpace=wrap;html=1;fillColor=#f8cecc;strokeColor=#b85450;fontColor=#000000;" parent="1" vertex="1">
                    <mxGeometry x="940" y="1055" width="60" height="45" as="geometry"/>
                </mxCell>
                <mxCell id="n9qfeYxf4jwycqsmzrw5-52" style="edgeStyle=orthogonalEdgeStyle;rounded=0;orthogonalLoop=1;jettySize=auto;html=1;entryX=0;entryY=0.25;entryDx=0;entryDy=0;fontSize=12;fontColor=#000000;startArrow=classic;startFill=1;strokeWidth=2;strokeColor=#000000;" parent="1" source="n9qfeYxf4jwycqsmzrw5-51" target="n9qfeYxf4jwycqsmzrw5-1" edge="1">
                    <mxGeometry relative="1" as="geometry"/>
                </mxCell>
                <mxCell id="n9qfeYxf4jwycqsmzrw5-51" value="Standard Components Library" style="rounded=1;whiteSpace=wrap;html=1;fillColor=#d5e8d4;strokeColor=#82b366;fontSize=8;fontColor=#000000;" parent="1" vertex="1">
                    <mxGeometry x="970" y="805" width="50" height="40" as="geometry"/>
                </mxCell>
                <mxCell id="n9qfeYxf4jwycqsmzrw5-55" style="edgeStyle=orthogonalEdgeStyle;rounded=0;orthogonalLoop=1;jettySize=auto;html=1;entryX=0.5;entryY=0;entryDx=0;entryDy=0;fontSize=12;fontColor=#000000;startArrow=classic;startFill=1;strokeWidth=2;strokeColor=#FF8000;" parent="1" source="n9qfeYxf4jwycqsmzrw5-54" target="n9qfeYxf4jwycqsmzrw5-1" edge="1">
                    <mxGeometry relative="1" as="geometry"/>
                </mxCell>
                <mxCell id="n9qfeYxf4jwycqsmzrw5-58" style="edgeStyle=orthogonalEdgeStyle;orthogonalLoop=1;jettySize=auto;html=1;entryX=0.25;entryY=1;entryDx=0;entryDy=0;fontSize=12;fontColor=#000000;startArrow=classic;startFill=1;strokeWidth=2;gradientColor=#ffa500;fillColor=#ffcd28;strokeColor=#FF8000;rounded=1;" parent="1" source="n9qfeYxf4jwycqsmzrw5-54" target="n9qfeYxf4jwycqsmzrw5-2" edge="1">
                    <mxGeometry relative="1" as="geometry"/>
                </mxCell>
                <mxCell id="n9qfeYxf4jwycqsmzrw5-54" value="Microsoft Teams" style="rounded=1;whiteSpace=wrap;html=1;fillColor=#f8cecc;strokeColor=#b85450;fontColor=#000000;" parent="1" vertex="1">
                    <mxGeometry x="1090" y="600" width="90" height="60" as="geometry"/>
                </mxCell>
                <mxCell id="n9qfeYxf4jwycqsmzrw5-56" value="" style="endArrow=classic;html=1;fontSize=12;fontColor=#000000;strokeColor=#FF8000;strokeWidth=2;" parent="1" edge="1">
                    <mxGeometry width="50" height="50" relative="1" as="geometry">
                        <mxPoint x="1165" y="1094.8" as="sourcePoint"/>
                        <mxPoint x="1215" y="1094.8" as="targetPoint"/>
                    </mxGeometry>
                </mxCell>
                <mxCell id="n9qfeYxf4jwycqsmzrw5-57" value="" style="endArrow=classic;html=1;fontSize=12;fontColor=#000000;strokeWidth=2;strokeColor=#000000;" parent="1" edge="1">
                    <mxGeometry width="50" height="50" relative="1" as="geometry">
                        <mxPoint x="1260" y="1095" as="sourcePoint"/>
                        <mxPoint x="1310" y="1095" as="targetPoint"/>
                    </mxGeometry>
                </mxCell>
                <mxCell id="n9qfeYxf4jwycqsmzrw5-60" value="(Power&lt;br&gt;Automate)" style="text;html=1;strokeColor=none;fillColor=none;align=center;verticalAlign=middle;whiteSpace=wrap;rounded=0;dashed=1;fontSize=8;" parent="1" vertex="1">
                    <mxGeometry x="1195" y="630" width="40" height="20" as="geometry"/>
                </mxCell>
            </root>
        </mxGraphModel>
    </diagram>
</mxfile>